<svg width="161.04" height="157.06" version="1.1" viewBox="0 0 42.607 41.555" xmlns="http://www.w3.org/2000/svg">
 <g fill="#6e5494">
  <path d="m21.304 0c-11.764 0-21.304 9.5374-21.304 21.304 0 9.4121 6.1041 17.398 14.569 20.215 1.0647 0.19721 1.4556-0.46214 1.4556-1.0248 0-0.50764-0.01976-2.1862-0.02893-3.9663-5.9267 1.2887-7.1773-2.5135-7.1773-2.5135-0.96908-2.462-2.3654-3.1171-2.3654-3.1171-1.9329-1.3222 0.1457-1.295 0.1457-1.295 2.1392 0.15028 3.2657 2.1957 3.2657 2.1957 1.9001 3.2565 4.9837 2.3149 6.1994 1.7706 0.19156-1.3765 0.7433-2.3167 1.3526-2.8487-4.7318-0.53834-9.706-2.3654-9.706-10.528 0-2.3255 0.8322-4.2263 2.195-5.7182-0.22119-0.53658-0.95038-2.7033 0.20673-5.6378 0 0 1.7889-0.5722 5.8596 2.184 1.6993-0.47202 3.5218-0.70873 5.3322-0.7172 1.8105 8e-3 3.6343 0.24518 5.3368 0.7172 4.0661-2.7562 5.8526-2.184 5.8526-2.184 1.1596 2.9344 0.43039 5.1012 0.2092 5.6378 1.366 1.4919 2.1922 3.3927 2.1922 5.7182 0 8.1827-4.9837 9.984-9.7275 10.511 0.76412 0.6611 1.445 1.9576 1.445 3.9451 0 2.8504-0.02434 5.1446-0.02434 5.8462 0 0.56727 0.38312 1.2312 1.463 1.0224 8.4603-2.8201 14.557-10.803 14.557-20.212 0-11.766-9.5381-21.304-21.304-21.304" fill-rule="evenodd"/>
  <g transform="matrix(.35278 0 0 -.35278 8.0689 30.587)">
   <path d="m0 0c-0.133-0.301-0.605-0.391-1.035-0.185-0.439 0.198-0.684 0.607-0.542 0.908 0.13 0.308 0.602 0.394 1.04 0.188 0.438-0.197 0.688-0.61 0.537-0.911" fill="#6e5494"/>
  </g>
  <g transform="matrix(.35278 0 0 -.35278 8.9319 31.55)">
   <path d="m0 0c-0.288-0.267-0.852-0.143-1.233 0.279-0.396 0.421-0.469 0.985-0.177 1.255 0.297 0.267 0.843 0.142 1.238-0.279 0.396-0.426 0.473-0.984 0.172-1.255" fill="#6e5494"/>
  </g>
  <g transform="matrix(.35278 0 0 -.35278 9.7718 32.776)">
   <path d="m0 0c-0.37-0.258-0.976-0.017-1.35 0.52-0.37 0.538-0.37 1.182 9e-3 1.44 0.374 0.258 0.971 0.025 1.35-0.507 0.369-0.546 0.369-1.19-9e-3 -1.453" fill="#6e5494"/>
  </g>
  <g transform="matrix(.35278 0 0 -.35278 10.922 33.962)">
   <path d="m0 0c-0.331-0.365-1.036-0.267-1.552 0.232-0.528 0.486-0.675 1.177-0.344 1.542 0.336 0.366 1.045 0.263 1.565-0.231 0.524-0.486 0.683-1.182 0.331-1.543" fill="#6e5494"/>
  </g>
  <g transform="matrix(.35278 0 0 -.35278 12.51 34.65)">
   <path d="m0 0c-0.147-0.473-0.825-0.687-1.509-0.486-0.683 0.207-1.13 0.76-0.992 1.238 0.142 0.476 0.824 0.7 1.513 0.485 0.682-0.206 1.13-0.756 0.988-1.237" fill="#6e5494"/>
  </g>
  <g transform="matrix(.35278 0 0 -.35278 14.254 34.778)">
   <path d="m0 0c0.017-0.498-0.563-0.911-1.281-0.92-0.722-0.016-1.307 0.387-1.315 0.877 0 0.503 0.568 0.911 1.289 0.924 0.718 0.014 1.307-0.387 1.307-0.881" fill="#6e5494"/>
  </g>
  <g transform="matrix(.35278 0 0 -.35278 15.876 34.502)">
   <path d="m0 0c0.086-0.485-0.413-0.984-1.126-1.117-0.701-0.129-1.35 0.172-1.439 0.653-0.087 0.498 0.42 0.997 1.121 1.126 0.714 0.124 1.353-0.168 1.444-0.662" fill="#6e5494"/>
  </g>
 </g>
</svg>
